<?xml version="1.0" encoding="UTF-8"?>
<!DOCTYPE svg PUBLIC "-//W3C//DTD SVG 1.1//EN" "http://www.w3.org/Graphics/SVG/1.1/DTD/svg11.dtd">
<svg xmlns="http://www.w3.org/2000/svg" version="1.1" width="1024px" height="367px" style="shape-rendering:geometricPrecision; text-rendering:geometricPrecision; image-rendering:optimizeQuality; fill-rule:evenodd; clip-rule:evenodd" xmlns:xlink="http://www.w3.org/1999/xlink">
<g><path style="opacity:1" fill="#fafafa" d="M -0.5,-0.5 C 340.833,-0.5 682.167,-0.5 1023.5,-0.5C 1023.5,121.833 1023.5,244.167 1023.5,366.5C 682.167,366.5 340.833,366.5 -0.5,366.5C -0.5,244.167 -0.5,121.833 -0.5,-0.5 Z"/></g>
<g><path style="opacity:1" fill="#e5d5f1" d="M 655.5,115.5 C 653.362,115.703 651.695,116.703 650.5,118.5C 649.571,117.311 649.238,115.978 649.5,114.5C 648.167,114.5 646.833,114.5 645.5,114.5C 645.5,115.833 645.5,117.167 645.5,118.5C 644.209,118.737 643.209,118.404 642.5,117.5C 644.176,116.817 644.843,115.483 644.5,113.5C 648.649,112.92 652.316,113.586 655.5,115.5 Z"/></g>
<g><path style="opacity:1" fill="#8642e4" d="M 544.5,118.5 C 553.5,118.5 562.5,118.5 571.5,118.5C 571.5,159.833 571.5,201.167 571.5,242.5C 562.5,242.5 553.5,242.5 544.5,242.5C 544.5,201.167 544.5,159.833 544.5,118.5 Z"/></g>
<g><path style="opacity:1" fill="#9b42df" d="M 655.5,115.5 C 656.158,116.398 656.824,117.398 657.5,118.5C 658.665,117.509 659.832,116.509 661,115.5C 663.099,117.534 665.432,117.868 668,116.5C 673.199,117.856 678.032,119.856 682.5,122.5C 681.833,122.5 681.167,122.5 680.5,122.5C 679.5,122.5 678.5,122.5 677.5,122.5C 677.285,124.179 677.952,125.179 679.5,125.5C 678.081,126.451 676.415,126.784 674.5,126.5C 674.768,124.901 674.434,123.568 673.5,122.5C 672.5,122.5 671.5,122.5 670.5,122.5C 670.5,123.5 670.5,124.5 670.5,125.5C 670.527,127.199 671.194,128.533 672.5,129.5C 669.833,130.5 669.833,131.5 672.5,132.5C 671.909,133.151 671.243,133.818 670.5,134.5C 671.993,135.141 672.993,136.141 673.5,137.5C 671.402,136.086 670.402,136.752 670.5,139.5C 671.5,139.5 672.5,139.5 673.5,139.5C 675.199,139.473 676.533,138.806 677.5,137.5C 677.5,138.833 678.167,139.5 679.5,139.5C 678.828,140.267 677.995,140.934 677,141.5C 676.308,142.437 676.475,143.103 677.5,143.5C 677.121,146.567 678.121,147.567 680.5,146.5C 682.199,146.473 683.533,145.806 684.5,144.5C 684.821,146.048 685.821,146.715 687.5,146.5C 689.199,146.473 690.533,145.806 691.5,144.5C 691.5,145.833 692.167,146.5 693.5,146.5C 690.713,147.477 687.713,147.81 684.5,147.5C 684.527,149.199 685.194,150.533 686.5,151.5C 685.167,151.5 684.5,152.167 684.5,153.5C 683.526,152.365 682.359,151.365 681,150.5C 680.601,150.728 680.435,151.062 680.5,151.5C 679.167,150.167 677.833,150.167 676.5,151.5C 675.566,152.568 675.232,153.901 675.5,155.5C 674.177,153.238 672.843,150.904 671.5,148.5C 672.833,147.38 673.333,146.047 673,144.5C 671.278,144.038 669.445,143.872 667.5,144C 664.325,142.423 663.991,140.59 666.5,138.5C 664.585,135.849 663.085,136.183 662,139.5C 654.696,134.631 647.196,134.298 639.5,138.5C 638.251,136.525 636.751,136.191 635,137.5C 635.148,141.512 632.982,143.512 628.5,143.5C 628.713,146.451 628.046,149.118 626.5,151.5C 625.833,151.5 625.167,151.5 624.5,151.5C 623.791,150.596 622.791,150.263 621.5,150.5C 619.31,149.025 617.977,147.025 617.5,144.5C 617.5,143.833 617.167,143.5 616.5,143.5C 615.152,142.399 613.652,141.399 612,140.5C 611.169,135.517 612.002,135.183 614.5,139.5C 615.5,140.833 616.5,140.833 617.5,139.5C 618.158,138.602 618.824,137.602 619.5,136.5C 620.176,137.602 620.842,138.602 621.5,139.5C 622.348,140.625 623.348,140.625 624.5,139.5C 625.158,138.602 625.824,137.602 626.5,136.5C 627.107,136.624 627.44,136.957 627.5,137.5C 628.492,141.171 629.825,141.337 631.5,138C 631.43,137.235 631.097,136.735 630.5,136.5C 629.909,135.849 629.243,135.182 628.5,134.5C 629.243,133.818 629.909,133.151 630.5,132.5C 631.404,131.791 631.737,130.791 631.5,129.5C 630.209,129.263 629.209,129.596 628.5,130.5C 627.849,131.091 627.182,131.757 626.5,132.5C 625.818,131.757 625.151,131.091 624.5,130.5C 624.5,129.833 624.167,129.5 623.5,129.5C 620.313,128.305 618.647,125.972 618.5,122.5C 622.9,119.64 627.733,117.64 633,116.5C 634.285,116.95 635.452,117.617 636.5,118.5C 637.631,117.249 638.964,116.249 640.5,115.5C 641.713,115.747 642.38,116.414 642.5,117.5C 643.209,118.404 644.209,118.737 645.5,118.5C 645.5,117.167 645.5,115.833 645.5,114.5C 646.833,114.5 648.167,114.5 649.5,114.5C 649.238,115.978 649.571,117.311 650.5,118.5C 651.695,116.703 653.362,115.703 655.5,115.5 Z"/></g>
<g><path style="opacity:1" fill="#dfd4ed" d="M 621.5,122.5 C 622.5,122.5 623.5,122.5 624.5,122.5C 624.5,123.5 624.5,124.5 624.5,125.5C 623.5,125.5 622.5,125.5 621.5,125.5C 621.5,124.5 621.5,123.5 621.5,122.5 Z"/></g>
<g><path style="opacity:1" fill="#e1d4ed" d="M 628.5,122.5 C 629.5,122.5 630.5,122.5 631.5,122.5C 631.5,123.5 631.5,124.5 631.5,125.5C 630.5,125.5 629.5,125.5 628.5,125.5C 628.5,124.5 628.5,123.5 628.5,122.5 Z"/></g>
<g><path style="opacity:1" fill="#e2d3ee" d="M 635.5,122.5 C 636.5,122.5 637.5,122.5 638.5,122.5C 638.5,123.5 638.5,124.5 638.5,125.5C 637.5,125.5 636.5,125.5 635.5,125.5C 635.5,124.5 635.5,123.5 635.5,122.5 Z"/></g>
<g><path style="opacity:1" fill="#e2d0ef" d="M 642.5,122.5 C 643.5,122.5 644.5,122.5 645.5,122.5C 645.5,123.5 645.5,124.5 645.5,125.5C 644.5,125.5 643.5,125.5 642.5,125.5C 642.5,124.5 642.5,123.5 642.5,122.5 Z"/></g>
<g><path style="opacity:1" fill="#dabfed" d="M 649.5,122.5 C 650.5,122.5 651.5,122.5 652.5,122.5C 652.5,123.5 652.5,124.5 652.5,125.5C 651.5,125.5 650.5,125.5 649.5,125.5C 649.5,124.5 649.5,123.5 649.5,122.5 Z"/></g>
<g><path style="opacity:1" fill="#dec5ef" d="M 656.5,122.5 C 657.5,122.5 658.5,122.5 659.5,122.5C 659.5,123.5 659.5,124.5 659.5,125.5C 658.5,125.5 657.5,125.5 656.5,125.5C 656.5,124.5 656.5,123.5 656.5,122.5 Z"/></g>
<g><path style="opacity:1" fill="#dfc5f0" d="M 663.5,122.5 C 664.5,122.5 665.5,122.5 666.5,122.5C 666.5,123.5 666.5,124.5 666.5,125.5C 665.5,125.5 664.5,125.5 663.5,125.5C 663.5,124.5 663.5,123.5 663.5,122.5 Z"/></g>
<g><path style="opacity:1" fill="#dfc3ee" d="M 673.5,122.5 C 673.5,123.5 673.5,124.5 673.5,125.5C 672.5,125.5 671.5,125.5 670.5,125.5C 670.5,124.5 670.5,123.5 670.5,122.5C 671.5,122.5 672.5,122.5 673.5,122.5 Z"/></g>
<g><path style="opacity:1" fill="#509aec" d="M 300.5,129.5 C 295.489,129.334 290.489,129.501 285.5,130C 284.263,130.232 283.263,130.732 282.5,131.5C 277.9,132.959 274.234,135.625 271.5,139.5C 268.131,138.441 266.464,136.108 266.5,132.5C 269.124,128.383 272.79,125.55 277.5,124C 285.105,122.689 292.772,122.189 300.5,122.5C 300.5,124.833 300.5,127.167 300.5,129.5 Z"/></g>
<g><path style="opacity:1" fill="#a338e0" d="M 673.5,122.5 C 674.434,123.568 674.768,124.901 674.5,126.5C 676.415,126.784 678.081,126.451 679.5,125.5C 680.404,124.791 680.737,123.791 680.5,122.5C 681.167,122.5 681.833,122.5 682.5,122.5C 685.077,124.765 687.91,126.765 691,128.5C 691.49,129.793 691.657,131.127 691.5,132.5C 692.873,132.343 694.207,132.51 695.5,133C 697.45,135.706 699.117,138.539 700.5,141.5C 700.218,142.778 699.551,143.778 698.5,144.5C 697.167,147.833 694.833,150.167 691.5,151.5C 689.905,154.485 687.572,156.818 684.5,158.5C 683.751,159.531 683.085,160.698 682.5,162C 681.251,162.74 680.251,162.573 679.5,161.5C 680.573,160.749 680.74,159.749 680,158.5C 679.023,157.226 678.189,157.226 677.5,158.5C 676.833,158.167 676.167,157.833 675.5,157.5C 675.5,156.833 675.5,156.167 675.5,155.5C 675.232,153.901 675.566,152.568 676.5,151.5C 676.5,152.5 676.5,153.5 676.5,154.5C 678.973,154.912 680.306,153.912 680.5,151.5C 680.435,151.062 680.601,150.728 681,150.5C 682.359,151.365 683.526,152.365 684.5,153.5C 684.897,154.525 685.563,154.692 686.5,154C 687.774,153.023 687.774,152.189 686.5,151.5C 685.194,150.533 684.527,149.199 684.5,147.5C 687.713,147.81 690.713,147.477 693.5,146.5C 692.167,146.5 691.5,145.833 691.5,144.5C 690.533,145.806 689.199,146.473 687.5,146.5C 687.332,143.949 686.332,143.282 684.5,144.5C 683.533,145.806 682.199,146.473 680.5,146.5C 680.5,144.5 679.5,143.5 677.5,143.5C 676.475,143.103 676.308,142.437 677,141.5C 677.995,140.934 678.828,140.267 679.5,139.5C 680.525,139.103 680.692,138.437 680,137.5C 679.023,136.226 678.189,136.226 677.5,137.5C 676.533,138.806 675.199,139.473 673.5,139.5C 673.5,138.833 673.5,138.167 673.5,137.5C 672.993,136.141 671.993,135.141 670.5,134.5C 671.243,133.818 671.909,133.151 672.5,132.5C 673.833,131.5 673.833,130.5 672.5,129.5C 671.194,128.533 670.527,127.199 670.5,125.5C 671.5,125.5 672.5,125.5 673.5,125.5C 673.5,124.5 673.5,123.5 673.5,122.5 Z"/></g>
<g><path style="opacity:1" fill="#dec2ed" d="M 680.5,122.5 C 680.737,123.791 680.404,124.791 679.5,125.5C 677.952,125.179 677.285,124.179 677.5,122.5C 678.5,122.5 679.5,122.5 680.5,122.5 Z"/></g>
<g><path style="opacity:1" fill="#bbd6f7" d="M 300.5,129.5 C 294.66,130.351 288.66,131.018 282.5,131.5C 283.263,130.732 284.263,130.232 285.5,130C 290.489,129.501 295.489,129.334 300.5,129.5 Z"/></g>
<g><path style="opacity:1" fill="#4aeefe" d="M 309.5,122.5 C 314.167,122.5 318.833,122.5 323.5,122.5C 323.5,127.167 323.5,131.833 323.5,136.5C 318.833,136.5 314.167,136.5 309.5,136.5C 309.5,131.833 309.5,127.167 309.5,122.5 Z"/></g>
<g><path style="opacity:1" fill="#ece6f3" d="M 630.5,132.5 C 629.167,132.5 628.5,131.833 628.5,130.5C 629.209,129.596 630.209,129.263 631.5,129.5C 631.737,130.791 631.404,131.791 630.5,132.5 Z"/></g>
<g><path style="opacity:1" fill="#f3ecf5" d="M 649.5,129.5 C 650.5,129.5 651.5,129.5 652.5,129.5C 652.5,130.5 652.5,131.5 652.5,132.5C 651.5,132.5 650.5,132.5 649.5,132.5C 649.5,131.5 649.5,130.5 649.5,129.5 Z"/></g>
<g><path style="opacity:1" fill="#e0c6ed" d="M 684.5,129.5 C 688.31,130.754 688.31,131.754 684.5,132.5C 684.5,131.5 684.5,130.5 684.5,129.5 Z"/></g>
<g><path style="opacity:1" fill="#ece7f3" d="M 623.5,129.5 C 624.167,129.5 624.5,129.833 624.5,130.5C 624.179,132.048 623.179,132.715 621.5,132.5C 621.285,130.821 621.952,129.821 623.5,129.5 Z"/></g>
<g><path style="opacity:1" fill="#e8def0" d="M 635.5,129.5 C 636.5,129.5 637.5,129.5 638.5,129.5C 638.5,130.5 638.5,131.5 638.5,132.5C 637.5,132.5 636.5,132.5 635.5,132.5C 635.5,131.5 635.5,130.5 635.5,129.5 Z"/></g>
<g><path style="opacity:1" fill="#e2d3ef" d="M 641.5,129.5 C 642.833,129.5 644.167,129.5 645.5,129.5C 645.5,130.5 645.5,131.5 645.5,132.5C 644.167,132.5 642.833,132.5 641.5,132.5C 641.5,131.5 641.5,130.5 641.5,129.5 Z"/></g>
<g><path style="opacity:1" fill="#ebdff3" d="M 656.5,129.5 C 657.5,129.5 658.5,129.5 659.5,129.5C 659.5,130.5 659.5,131.5 659.5,132.5C 658.5,132.5 657.5,132.5 656.5,132.5C 656.5,131.5 656.5,130.5 656.5,129.5 Z"/></g>
<g><path style="opacity:1" fill="#ebdcf3" d="M 663.5,129.5 C 664.5,129.5 665.5,129.5 666.5,129.5C 666.5,130.5 666.5,131.5 666.5,132.5C 665.5,132.5 664.5,132.5 663.5,132.5C 663.5,131.5 663.5,130.5 663.5,129.5 Z"/></g>
<g><path style="opacity:1" fill="#e2ccef" d="M 672.5,129.5 C 673.833,130.5 673.833,131.5 672.5,132.5C 669.833,131.5 669.833,130.5 672.5,129.5 Z"/></g>
<g><path style="opacity:1" fill="#dfc7f1" d="M 677.5,129.5 C 678.5,129.5 679.5,129.5 680.5,129.5C 680.5,130.5 680.5,131.5 680.5,132.5C 679.5,132.5 678.5,132.5 677.5,132.5C 677.5,131.5 677.5,130.5 677.5,129.5 Z"/></g>
<g><path style="opacity:1" fill="#9c59e3" d="M 618.5,122.5 C 618.647,125.972 620.313,128.305 623.5,129.5C 621.952,129.821 621.285,130.821 621.5,132.5C 623.179,132.715 624.179,132.048 624.5,130.5C 625.151,131.091 625.818,131.757 626.5,132.5C 627.182,131.757 627.849,131.091 628.5,130.5C 628.5,131.833 629.167,132.5 630.5,132.5C 629.909,133.151 629.243,133.818 628.5,134.5C 629.243,135.182 629.909,135.849 630.5,136.5C 629.391,136.557 628.391,136.89 627.5,137.5C 627.44,136.957 627.107,136.624 626.5,136.5C 625.824,137.602 625.158,138.602 624.5,139.5C 624.5,138.5 624.5,137.5 624.5,136.5C 623.5,136.5 622.5,136.5 621.5,136.5C 621.5,137.5 621.5,138.5 621.5,139.5C 620.842,138.602 620.176,137.602 619.5,136.5C 618.824,137.602 618.158,138.602 617.5,139.5C 617.5,138.5 617.5,137.5 617.5,136.5C 616.5,136.5 615.5,136.5 614.5,136.5C 614.5,137.5 614.5,138.5 614.5,139.5C 612.002,135.183 611.169,135.517 612,140.5C 613.652,141.399 615.152,142.399 616.5,143.5C 615.005,143.415 614.005,144.081 613.5,145.5C 614.32,147.111 615.654,147.778 617.5,147.5C 617.5,146.5 617.5,145.5 617.5,144.5C 617.977,147.025 619.31,149.025 621.5,150.5C 620.89,151.391 620.557,152.391 620.5,153.5C 619.833,152.833 619.167,152.167 618.5,151.5C 615.837,149.83 614.17,150.497 613.5,153.5C 612.732,152.737 612.232,151.737 612,150.5C 611.601,150.728 611.435,151.062 611.5,151.5C 610.292,150.766 608.959,150.433 607.5,150.5C 608.263,149.732 609.263,149.232 610.5,149C 609.263,148.768 608.263,148.268 607.5,147.5C 609.346,147.778 610.68,147.111 611.5,145.5C 610.68,143.889 609.346,143.222 607.5,143.5C 608.263,142.732 609.263,142.232 610.5,142C 609.263,141.768 608.263,141.268 607.5,140.5C 608.5,140.5 609.5,140.5 610.5,140.5C 610.5,139.167 610.5,137.833 610.5,136.5C 609.5,136.5 608.5,136.5 607.5,136.5C 608.398,135.842 609.398,135.176 610.5,134.5C 610.376,133.893 610.043,133.56 609.5,133.5C 608.95,128.046 611.617,125.38 617.5,125.5C 617.263,124.209 617.596,123.209 618.5,122.5 Z"/></g>
<g><path style="opacity:1" fill="#e7dff4" d="M 614.5,128.5 C 616.912,128.694 617.912,130.027 617.5,132.5C 616.167,132.5 614.833,132.5 613.5,132.5C 613.433,131.041 613.766,129.708 614.5,128.5 Z"/></g>
<g><path style="opacity:1" fill="#e8def1" d="M 624.5,139.5 C 623.348,140.625 622.348,140.625 621.5,139.5C 621.5,138.5 621.5,137.5 621.5,136.5C 622.5,136.5 623.5,136.5 624.5,136.5C 624.5,137.5 624.5,138.5 624.5,139.5 Z"/></g>
<g><path style="opacity:1" fill="#e5d8f0" d="M 630.5,136.5 C 631.097,136.735 631.43,137.235 631.5,138C 629.825,141.337 628.492,141.171 627.5,137.5C 628.391,136.89 629.391,136.557 630.5,136.5 Z"/></g>
<g><path style="opacity:1" fill="#faf9fb" d="M 675.5,155.5 C 675.5,156.167 675.5,156.833 675.5,157.5C 675.721,160.067 676.388,162.401 677.5,164.5C 678.209,165.404 679.209,165.737 680.5,165.5C 680.5,166.5 680.5,167.5 680.5,168.5C 679.5,168.5 678.5,168.5 677.5,168.5C 677.424,170.923 678.424,172.756 680.5,174C 677.833,176.333 677.833,178.667 680.5,181C 677.833,183.333 677.833,185.667 680.5,188C 679.217,189.136 678.217,190.469 677.5,192C 678.509,193.168 679.509,194.335 680.5,195.5C 680.376,196.107 680.043,196.44 679.5,196.5C 678.5,196.5 677.5,196.5 676.5,196.5C 676.326,198.861 675.993,201.194 675.5,203.5C 674.74,207.027 673.406,210.36 671.5,213.5C 672.95,214.85 673.617,216.516 673.5,218.5C 671.61,218.703 670.11,218.037 669,216.5C 666.43,218.869 663.596,220.869 660.5,222.5C 659.614,223.325 659.281,224.325 659.5,225.5C 656.771,224.47 654.104,224.47 651.5,225.5C 648.577,223.899 645.91,224.232 643.5,226.5C 641.889,225.68 641.222,224.346 641.5,222.5C 640.5,222.5 639.5,222.5 638.5,222.5C 638.934,225.166 637.934,226.333 635.5,226C 633.987,223.546 634.654,221.879 637.5,221C 635.695,220.028 634.028,218.861 632.5,217.5C 630.375,220.268 628.709,220.101 627.5,217C 627.95,215.715 628.617,214.548 629.5,213.5C 627.707,210.749 626.041,207.916 624.5,205C 623.207,204.51 621.873,204.343 620.5,204.5C 620.244,202.088 621.244,200.421 623.5,199.5C 622.289,198.126 621.289,196.626 620.5,195C 620.5,185.667 620.5,176.333 620.5,167C 621.167,165.667 621.833,164.333 622.5,163C 619.654,160.399 619.988,158.566 623.5,157.5C 624.87,155.75 625.87,153.75 626.5,151.5C 628.046,149.118 628.713,146.451 628.5,143.5C 632.982,143.512 635.148,141.512 635,137.5C 636.751,136.191 638.251,136.525 639.5,138.5C 647.196,134.298 654.696,134.631 662,139.5C 663.085,136.183 664.585,135.849 666.5,138.5C 663.991,140.59 664.325,142.423 667.5,144C 669.445,143.872 671.278,144.038 673,144.5C 673.333,146.047 672.833,147.38 671.5,148.5C 672.843,150.904 674.177,153.238 675.5,155.5 Z"/></g>
<g><path style="opacity:1" fill="#e6def3" d="M 607.5,136.5 C 608.5,136.5 609.5,136.5 610.5,136.5C 610.5,137.833 610.5,139.167 610.5,140.5C 609.5,140.5 608.5,140.5 607.5,140.5C 606.314,139.039 606.314,137.705 607.5,136.5 Z"/></g>
<g><path style="opacity:1" fill="#e5daf2" d="M 617.5,139.5 C 616.5,140.833 615.5,140.833 614.5,139.5C 614.5,138.5 614.5,137.5 614.5,136.5C 615.5,136.5 616.5,136.5 617.5,136.5C 617.5,137.5 617.5,138.5 617.5,139.5 Z"/></g>
<g><path style="opacity:1" fill="#e4d0ee" d="M 673.5,137.5 C 673.5,138.167 673.5,138.833 673.5,139.5C 672.5,139.5 671.5,139.5 670.5,139.5C 670.402,136.752 671.402,136.086 673.5,137.5 Z"/></g>
<g><path style="opacity:1" fill="#e1ccee" d="M 679.5,139.5 C 678.167,139.5 677.5,138.833 677.5,137.5C 678.189,136.226 679.023,136.226 680,137.5C 680.692,138.437 680.525,139.103 679.5,139.5 Z"/></g>
<g><path style="opacity:1" fill="#e5cbee" d="M 684.5,136.5 C 688.31,137.754 688.31,138.754 684.5,139.5C 684.5,138.5 684.5,137.5 684.5,136.5 Z"/></g>
<g><path style="opacity:1" fill="#eeeaf1" d="M 691.5,137.5 C 693.337,137.639 693.67,138.306 692.5,139.5C 691.702,139.043 691.369,138.376 691.5,137.5 Z"/></g>
<g><path style="opacity:1" fill="#ede5f7" d="M 607.5,143.5 C 609.346,143.222 610.68,143.889 611.5,145.5C 610.68,147.111 609.346,147.778 607.5,147.5C 606.314,146.039 606.314,144.705 607.5,143.5 Z"/></g>
<g><path style="opacity:1" fill="#e7d3f2" d="M 677.5,143.5 C 679.5,143.5 680.5,144.5 680.5,146.5C 678.121,147.567 677.121,146.567 677.5,143.5 Z"/></g>
<g><path style="opacity:1" fill="#eee8f6" d="M 616.5,143.5 C 617.167,143.5 617.5,143.833 617.5,144.5C 617.5,145.5 617.5,146.5 617.5,147.5C 615.654,147.778 614.32,147.111 613.5,145.5C 614.005,144.081 615.005,143.415 616.5,143.5 Z"/></g>
<g><path style="opacity:1" fill="#e0d5ec" d="M 621.5,143.5 C 622.5,143.5 623.5,143.5 624.5,143.5C 624.5,144.833 624.5,146.167 624.5,147.5C 623.5,147.5 622.5,147.5 621.5,147.5C 621.5,146.167 621.5,144.833 621.5,143.5 Z"/></g>
<g><path style="opacity:1" fill="#e3cced" d="M 687.5,146.5 C 685.821,146.715 684.821,146.048 684.5,144.5C 686.332,143.282 687.332,143.949 687.5,146.5 Z"/></g>
<g><path style="opacity:1" fill="#ece7f1" d="M 691.5,144.5 C 692.833,144.5 693.5,145.167 693.5,146.5C 693.5,145.167 692.833,144.5 691.5,144.5 Z"/></g>
<g><path style="opacity:1" fill="#efe9f7" d="M 618.5,151.5 C 618.586,152.496 618.252,153.329 617.5,154C 615.934,154.765 614.601,154.598 613.5,153.5C 614.17,150.497 615.837,149.83 618.5,151.5 Z"/></g>
<g><path style="opacity:1" fill="#4f98ea" d="M 286.5,155.5 C 290.97,156.486 295.637,156.819 300.5,156.5C 300.5,158.5 300.5,160.5 300.5,162.5C 288.5,162.5 276.5,162.5 264.5,162.5C 266.663,161.531 268.996,160.698 271.5,160C 270.027,159.29 269.36,158.124 269.5,156.5C 271.833,156.5 274.167,156.5 276.5,156.5C 274.423,147.153 277.756,140.653 286.5,137C 291.155,136.501 295.821,136.334 300.5,136.5C 300.5,139.167 300.5,141.833 300.5,144.5C 290.408,141.609 285.741,145.275 286.5,155.5 Z"/></g>
<g><path style="opacity:1" fill="#ece8f4" d="M 621.5,150.5 C 622.791,150.263 623.791,150.596 624.5,151.5C 624.5,153.5 623.5,154.5 621.5,154.5C 620.833,154.5 620.5,154.167 620.5,153.5C 620.557,152.391 620.89,151.391 621.5,150.5 Z"/></g>
<g><path style="opacity:1" fill="#dfc5ed" d="M 680.5,151.5 C 680.306,153.912 678.973,154.912 676.5,154.5C 676.5,153.5 676.5,152.5 676.5,151.5C 677.833,150.167 679.167,150.167 680.5,151.5 Z"/></g>
<g><path style="opacity:1" fill="#e1cbeb" d="M 686.5,151.5 C 687.774,152.189 687.774,153.023 686.5,154C 685.563,154.692 684.897,154.525 684.5,153.5C 684.5,152.167 685.167,151.5 686.5,151.5 Z"/></g>
<g><path style="opacity:1" fill="#50aeee" d="M 266.5,132.5 C 266.464,136.108 268.131,138.441 271.5,139.5C 269.656,144.915 268.989,150.582 269.5,156.5C 269.36,158.124 270.027,159.29 271.5,160C 268.996,160.698 266.663,161.531 264.5,162.5C 258.833,162.5 253.167,162.5 247.5,162.5C 247.5,160.5 247.5,158.5 247.5,156.5C 251.634,155.515 255.968,155.182 260.5,155.5C 259.689,148.123 260.856,141.123 264,134.5C 264.708,133.619 265.542,132.953 266.5,132.5 Z"/></g>
<g><path style="opacity:1" fill="#9650e7" d="M 609.5,133.5 C 610.043,133.56 610.376,133.893 610.5,134.5C 609.398,135.176 608.398,135.842 607.5,136.5C 606.314,137.705 606.314,139.039 607.5,140.5C 608.263,141.268 609.263,141.768 610.5,142C 609.263,142.232 608.263,142.732 607.5,143.5C 606.314,144.705 606.314,146.039 607.5,147.5C 608.263,148.268 609.263,148.768 610.5,149C 609.263,149.232 608.263,149.732 607.5,150.5C 606.566,151.568 606.232,152.901 606.5,154.5C 609.285,155.084 610.952,154.084 611.5,151.5C 611.435,151.062 611.601,150.728 612,150.5C 612.232,151.737 612.732,152.737 613.5,153.5C 614.601,154.598 615.934,154.765 617.5,154C 618.252,153.329 618.586,152.496 618.5,151.5C 619.167,152.167 619.833,152.833 620.5,153.5C 620.5,154.167 620.833,154.5 621.5,154.5C 622.551,155.222 623.218,156.222 623.5,157.5C 619.988,158.566 619.654,160.399 622.5,163C 621.833,164.333 621.167,165.667 620.5,167C 620.5,176.333 620.5,185.667 620.5,195C 621.289,196.626 622.289,198.126 623.5,199.5C 621.244,200.421 620.244,202.088 620.5,204.5C 621.873,204.343 623.207,204.51 624.5,205C 626.041,207.916 627.707,210.749 629.5,213.5C 628.617,214.548 627.95,215.715 627.5,217C 628.709,220.101 630.375,220.268 632.5,217.5C 634.028,218.861 635.695,220.028 637.5,221C 634.654,221.879 633.987,223.546 635.5,226C 637.934,226.333 638.934,225.166 638.5,222.5C 639.5,222.5 640.5,222.5 641.5,222.5C 641.222,224.346 641.889,225.68 643.5,226.5C 645.91,224.232 648.577,223.899 651.5,225.5C 647.774,228.537 648.608,229.204 654,227.5C 655.728,227.899 657.228,228.566 658.5,229.5C 657.5,229.5 656.5,229.5 655.5,229.5C 654.167,230.833 652.833,232.167 651.5,233.5C 652.234,232.292 652.567,230.959 652.5,229.5C 651.167,229.5 649.833,229.5 648.5,229.5C 648.433,230.959 648.766,232.292 649.5,233.5C 649.782,234.778 650.449,235.778 651.5,236.5C 650.5,236.5 649.5,236.5 648.5,236.5C 647.167,237.833 645.833,239.167 644.5,240.5C 645.234,239.292 645.567,237.959 645.5,236.5C 644.167,236.5 642.833,236.5 641.5,236.5C 641.433,237.959 641.766,239.292 642.5,240.5C 641.957,240.56 641.624,240.893 641.5,241.5C 642.949,242.172 644.282,242.839 645.5,243.5C 643.516,243.383 641.85,244.05 640.5,245.5C 639.692,245.192 639.025,244.692 638.5,244C 634.106,243.697 629.773,243.03 625.5,242C 624.692,241.692 624.025,241.192 623.5,240.5C 624.309,238.929 624.643,237.262 624.5,235.5C 622.088,235.244 620.421,236.244 619.5,238.5C 617.43,236.358 614.93,235.024 612,234.5C 611.749,232.567 611.249,230.734 610.5,229C 608.026,228.963 606.026,228.13 604.5,226.5C 604.702,224.05 604.369,221.717 603.5,219.5C 604.11,218.609 604.443,217.609 604.5,216.5C 605.167,216.833 605.833,217.167 606.5,217.5C 607.314,219.273 608.648,219.773 610.5,219C 611.337,217.989 611.67,216.822 611.5,215.5C 612.167,216.167 612.833,216.833 613.5,217.5C 615.553,220.284 617.219,219.951 618.5,216.5C 617.68,214.889 616.346,214.222 614.5,214.5C 613.957,214.44 613.624,214.107 613.5,213.5C 615.655,212.999 617.322,211.999 618.5,210.5C 617.952,207.916 616.285,206.916 613.5,207.5C 612.326,206.486 611.66,205.153 611.5,203.5C 611.443,202.391 611.11,201.391 610.5,200.5C 608.735,199.539 606.735,199.205 604.5,199.5C 604.5,198.5 604.5,197.5 604.5,196.5C 604.443,195.391 604.11,194.391 603.5,193.5C 602.391,192.71 601.058,192.21 599.5,192C 601.744,191.95 603.411,191.117 604.5,189.5C 604.833,186.5 603.5,185.167 600.5,185.5C 599.167,184.833 599.167,184.167 600.5,183.5C 602.635,183.853 603.968,183.02 604.5,181C 603.5,178.389 601.833,177.889 599.5,179.5C 598.999,181.246 598.332,182.246 597.5,182.5C 597.475,178.716 595.808,177.716 592.5,179.5C 591.527,177.052 591.194,174.385 591.5,171.5C 591.5,170.167 591.5,168.833 591.5,167.5C 591.833,167.5 592.167,167.5 592.5,167.5C 593.585,169.582 595.085,169.916 597,168.5C 597.847,165.51 596.68,164.176 593.5,164.5C 592.957,164.44 592.624,164.107 592.5,163.5C 593.949,162.828 595.282,162.161 596.5,161.5C 597.795,158.745 596.795,157.078 593.5,156.5C 594.833,155.167 596.167,153.833 597.5,152.5C 595.957,146.291 598.123,141.957 604,139.5C 602.633,134.37 604.466,132.37 609.5,133.5 Z"/></g>
<g><path style="opacity:1" fill="#e8ddf4" d="M 599.5,150.5 C 601.665,150.116 603.332,150.783 604.5,152.5C 603.332,154.217 601.665,154.884 599.5,154.5C 599.5,153.167 599.5,151.833 599.5,150.5 Z"/></g>
<g><path style="opacity:1" fill="#eee7f7" d="M 607.5,150.5 C 608.959,150.433 610.292,150.766 611.5,151.5C 610.952,154.084 609.285,155.084 606.5,154.5C 606.232,152.901 606.566,151.568 607.5,150.5 Z"/></g>
<g><path style="opacity:1" fill="#efe7f9" d="M 599.5,143.5 C 601.665,143.116 603.332,143.783 604.5,145.5C 603.332,147.217 601.665,147.884 599.5,147.5C 599.5,146.167 599.5,144.833 599.5,143.5 Z"/></g>
<g><path style="opacity:1" fill="#bc94e9" d="M 624.5,151.5 C 625.167,151.5 625.833,151.5 626.5,151.5C 625.87,153.75 624.87,155.75 623.5,157.5C 623.218,156.222 622.551,155.222 621.5,154.5C 623.5,154.5 624.5,153.5 624.5,151.5 Z"/></g>
<g><path style="opacity:1" fill="#988ce3" d="M 473.5,176.5 C 473.167,176.5 472.833,176.5 472.5,176.5C 472.5,176.167 472.5,175.833 472.5,175.5C 472.5,169.167 472.5,162.833 472.5,156.5C 453.133,156.204 433.8,156.537 414.5,157.5C 414.167,157.5 413.833,157.5 413.5,157.5C 413.918,156.778 414.584,156.278 415.5,156C 434.83,155.5 454.164,155.333 473.5,155.5C 473.5,162.5 473.5,169.5 473.5,176.5 Z"/></g>
<g><path style="opacity:1" fill="#b294e5" d="M 504.5,134.5 C 505.491,141.313 505.825,148.313 505.5,155.5C 513.684,155.174 521.684,155.508 529.5,156.5C 521.167,156.5 512.833,156.5 504.5,156.5C 504.5,149.167 504.5,141.833 504.5,134.5 Z"/></g>
<g><path style="opacity:1" fill="#a190e7" d="M 504.5,134.5 C 497.5,134.5 490.5,134.5 483.5,134.5C 483.5,162.833 483.5,191.167 483.5,219.5C 482.502,191.005 482.169,162.338 482.5,133.5C 490.019,133.175 497.352,133.508 504.5,134.5 Z"/></g>
<g><path style="opacity:1" fill="#eae1f6" d="M 599.5,157.5 C 603.138,156.737 604.638,158.07 604,161.5C 600.331,163.009 598.831,161.676 599.5,157.5 Z"/></g>
<g><path style="opacity:1" fill="#e9e0f5" d="M 607.5,157.5 C 611.161,157.35 612.161,158.85 610.5,162C 606.707,162.487 605.707,160.987 607.5,157.5 Z"/></g>
<g><path style="opacity:1" fill="#d1a3ee" d="M 675.5,157.5 C 676.167,157.833 676.833,158.167 677.5,158.5C 677.5,159.5 677.5,160.5 677.5,161.5C 677.5,162.5 677.5,163.5 677.5,164.5C 676.388,162.401 675.721,160.067 675.5,157.5 Z"/></g>
<g><path style="opacity:1" fill="#e1d1f3" d="M 614.5,157.5 C 619.218,158.319 619.552,159.986 615.5,162.5C 613.296,161.218 612.962,159.551 614.5,157.5 Z"/></g>
<g><path style="opacity:1" fill="#eee0f5" d="M 679.5,161.5 C 678.833,161.5 678.167,161.5 677.5,161.5C 677.5,160.5 677.5,159.5 677.5,158.5C 678.189,157.226 679.023,157.226 680,158.5C 680.74,159.749 680.573,160.749 679.5,161.5 Z"/></g>
<g><path style="opacity:1" fill="#4f7ee1" d="M 353.5,156.5 C 357.902,156.926 361.902,158.26 365.5,160.5C 362.895,161.472 360.895,163.139 359.5,165.5C 355.546,164.619 351.546,163.952 347.5,163.5C 336.012,162.505 324.345,162.172 312.5,162.5C 312.5,160.5 312.5,158.5 312.5,156.5C 326.167,156.5 339.833,156.5 353.5,156.5 Z"/></g>
<g><path style="opacity:1" fill="#646bdc" d="M 413.5,157.5 C 413.833,157.5 414.167,157.5 414.5,157.5C 415.209,158.404 416.209,158.737 417.5,158.5C 417.67,159.822 417.337,160.989 416.5,162C 433.338,162.168 450.005,162.668 466.5,163.5C 449.497,163.333 432.497,163.5 415.5,164C 400.641,169.549 396.808,179.382 404,193.5C 406.264,196.433 409.098,198.6 412.5,200C 422.353,201.598 432.02,203.431 441.5,205.5C 434.951,206.881 428.284,207.714 421.5,208C 424.522,208.098 427.189,208.932 429.5,210.5C 420.408,209.931 411.741,207.764 403.5,204C 391.137,192.68 389.304,179.847 398,165.5C 402.317,161.092 407.484,158.425 413.5,157.5 Z"/></g>
<g><path style="opacity:1" fill="#bad6f5" d="M 286.5,155.5 C 291.833,155.5 297.167,155.5 302.5,155.5C 302.768,158.119 302.435,160.619 301.5,163C 283.17,163.5 264.836,163.667 246.5,163.5C 246.198,160.941 246.532,158.607 247.5,156.5C 247.5,158.5 247.5,160.5 247.5,162.5C 253.167,162.5 258.833,162.5 264.5,162.5C 276.5,162.5 288.5,162.5 300.5,162.5C 300.5,160.5 300.5,158.5 300.5,156.5C 295.637,156.819 290.97,156.486 286.5,155.5 Z"/></g>
<g><path style="opacity:1" fill="#9bb7ee" d="M 353.5,156.5 C 339.833,156.5 326.167,156.5 312.5,156.5C 312.5,158.5 312.5,160.5 312.5,162.5C 324.345,162.172 336.012,162.505 347.5,163.5C 335.5,163.5 323.5,163.5 311.5,163.5C 311.5,160.833 311.5,158.167 311.5,155.5C 325.677,155.171 339.677,155.504 353.5,156.5 Z"/></g>
<g><path style="opacity:1" fill="#baa4e7" d="M 496.5,141.5 C 497.491,148.313 497.825,155.313 497.5,162.5C 508.167,162.5 518.833,162.5 529.5,162.5C 518.679,163.495 507.679,163.828 496.5,163.5C 496.5,156.167 496.5,148.833 496.5,141.5 Z"/></g>
<g><path style="opacity:1" fill="#c6a7f0" d="M 596.5,161.5 C 595.282,162.161 593.949,162.828 592.5,163.5C 592.624,164.107 592.957,164.44 593.5,164.5C 592.89,165.391 592.557,166.391 592.5,167.5C 592.167,167.5 591.833,167.5 591.5,167.5C 591.5,165.5 591.5,163.5 591.5,161.5C 593.167,161.5 594.833,161.5 596.5,161.5 Z"/></g>
<g><path style="opacity:1" fill="#eee5f8" d="M 593.5,164.5 C 596.68,164.176 597.847,165.51 597,168.5C 595.085,169.916 593.585,169.582 592.5,167.5C 592.557,166.391 592.89,165.391 593.5,164.5 Z"/></g>
<g><path style="opacity:1" fill="#e9def7" d="M 599.5,164.5 C 603.138,163.737 604.638,165.07 604,168.5C 600.331,170.009 598.831,168.676 599.5,164.5 Z"/></g>
<g><path style="opacity:1" fill="#e7dbf5" d="M 614.5,164.5 C 618.161,164.35 619.161,165.85 617.5,169C 613.707,169.487 612.707,167.987 614.5,164.5 Z"/></g>
<g><path style="opacity:1" fill="#ebe3f5" d="M 607.5,164.5 C 611.161,164.35 612.161,165.85 610.5,169C 606.707,169.487 605.707,167.987 607.5,164.5 Z"/></g>
<g><path style="opacity:1" fill="#a6a0e9" d="M 466.5,169.5 C 456.347,170.494 446.014,170.828 435.5,170.5C 428.798,170.336 422.131,170.669 415.5,171.5C 415.918,170.778 416.584,170.278 417.5,170C 433.83,169.5 450.163,169.333 466.5,169.5 Z"/></g>
<g><path style="opacity:1" fill="#b395e6" d="M 497.5,170.5 C 508.321,169.505 519.321,169.172 530.5,169.5C 530.802,172.059 530.468,174.393 529.5,176.5C 529.5,174.5 529.5,172.5 529.5,170.5C 518.833,170.5 508.167,170.5 497.5,170.5 Z"/></g>
<g><path style="opacity:1" fill="#6691e6" d="M 353.5,171.5 C 345.493,171.334 337.493,171.5 329.5,172C 330.833,172.333 332.167,172.667 333.5,173C 331.377,174.194 329.043,174.86 326.5,175C 334.011,175.171 341.345,175.671 348.5,176.5C 336.167,176.5 323.833,176.5 311.5,176.5C 311.5,174.167 311.5,171.833 311.5,169.5C 324.171,169.333 336.838,169.5 349.5,170C 351.058,170.21 352.391,170.71 353.5,171.5 Z"/></g>
<g><path style="opacity:1" fill="#6353db" d="M 472.5,175.5 C 457.163,175.667 441.83,175.5 426.5,175C 430.512,173.197 430.178,172.197 425.5,172C 429.025,171.821 432.359,171.321 435.5,170.5C 446.014,170.828 456.347,170.494 466.5,169.5C 466.5,167.5 466.5,165.5 466.5,163.5C 450.005,162.668 433.338,162.168 416.5,162C 417.337,160.989 417.67,159.822 417.5,158.5C 416.209,158.737 415.209,158.404 414.5,157.5C 433.8,156.537 453.133,156.204 472.5,156.5C 472.5,162.833 472.5,169.167 472.5,175.5 Z"/></g>
<g><path style="opacity:1" fill="#5179df" d="M 353.5,171.5 C 364.526,175.209 368.526,182.876 365.5,194.5C 356.108,194.89 349.442,194.557 345.5,193.5C 345.5,192.5 345.5,191.5 345.5,190.5C 343.801,190.66 342.134,190.494 340.5,190C 342.058,189.79 343.391,189.29 344.5,188.5C 349.032,188.818 353.366,188.485 357.5,187.5C 357.826,181.156 354.826,177.489 348.5,176.5C 341.345,175.671 334.011,175.171 326.5,175C 329.043,174.86 331.377,174.194 333.5,173C 332.167,172.667 330.833,172.333 329.5,172C 337.493,171.5 345.493,171.334 353.5,171.5 Z"/></g>
<g><path style="opacity:1" fill="#e6dbf4" d="M 593.5,171.5 C 597.161,171.35 598.161,172.85 596.5,176C 595.207,176.49 593.873,176.657 592.5,176.5C 592.366,174.708 592.699,173.042 593.5,171.5 Z"/></g>
<g><path style="opacity:1" fill="#ede5f7" d="M 600.5,171.5 C 604.161,171.35 605.161,172.85 603.5,176C 602.207,176.49 600.873,176.657 599.5,176.5C 599.366,174.708 599.699,173.042 600.5,171.5 Z"/></g>
<g><path style="opacity:1" fill="#eee7f7" d="M 607.5,171.5 C 611.161,171.35 612.161,172.85 610.5,176C 606.707,176.487 605.707,174.987 607.5,171.5 Z"/></g>
<g><path style="opacity:1" fill="#ebe0f6" d="M 614.5,171.5 C 618.161,171.35 619.161,172.85 617.5,176C 613.707,176.487 612.707,174.987 614.5,171.5 Z"/></g>
<g><path style="opacity:1" fill="#a641e4" d="M 700.5,141.5 C 705.3,147.365 706.966,154.032 705.5,161.5C 706.5,161.5 707.5,161.5 708.5,161.5C 708.5,162.833 708.5,164.167 708.5,165.5C 707.5,165.5 706.5,165.5 705.5,165.5C 705.5,166.5 705.5,167.5 705.5,168.5C 706.5,168.5 707.5,168.5 708.5,168.5C 708.5,169.5 708.5,170.5 708.5,171.5C 708.5,172.167 708.167,172.5 707.5,172.5C 704.833,173.5 704.833,174.5 707.5,175.5C 708.833,176.833 708.833,178.167 707.5,179.5C 705.952,179.821 705.285,180.821 705.5,182.5C 706.5,182.5 707.5,182.5 708.5,182.5C 708.5,183.833 708.5,185.167 708.5,186.5C 707.209,186.263 706.209,186.596 705.5,187.5C 705.821,189.048 706.821,189.715 708.5,189.5C 708.5,190.833 708.5,192.167 708.5,193.5C 707.209,193.263 706.209,193.596 705.5,194.5C 705.626,196.2 706.293,197.7 707.5,199C 705.287,201.083 704.953,203.417 706.5,206C 705.393,209.154 704.393,212.32 703.5,215.5C 698.117,225.432 690.617,233.432 681,239.5C 680.517,238.552 680.351,237.552 680.5,236.5C 679.5,236.5 678.5,236.5 677.5,236.5C 677.747,238.858 677.081,240.858 675.5,242.5C 672.639,242.342 669.972,243.008 667.5,244.5C 666.446,244.32 665.446,243.987 664.5,243.5C 662.326,246.06 660.159,246.06 658,243.5C 656.667,244.167 655.333,244.833 654,245.5C 651.841,242.94 649.674,242.94 647.5,245.5C 646.478,245.145 645.811,244.478 645.5,243.5C 644.282,242.839 642.949,242.172 641.5,241.5C 641.624,240.893 641.957,240.56 642.5,240.5C 643.167,240.5 643.833,240.5 644.5,240.5C 645.833,239.167 647.167,237.833 648.5,236.5C 648.167,239.5 649.5,240.833 652.5,240.5C 652.768,238.901 652.434,237.568 651.5,236.5C 650.449,235.778 649.782,234.778 649.5,233.5C 650.167,233.5 650.833,233.5 651.5,233.5C 652.833,232.167 654.167,230.833 655.5,229.5C 655.854,233.859 657.188,234.359 659.5,231C 659.43,230.235 659.097,229.735 658.5,229.5C 657.228,228.566 655.728,227.899 654,227.5C 648.608,229.204 647.774,228.537 651.5,225.5C 654.104,224.47 656.771,224.47 659.5,225.5C 659.281,224.325 659.614,223.325 660.5,222.5C 663.596,220.869 666.43,218.869 669,216.5C 670.11,218.037 671.61,218.703 673.5,218.5C 673.617,216.516 672.95,214.85 671.5,213.5C 673.406,210.36 674.74,207.027 675.5,203.5C 681.09,204.484 681.757,202.984 677.5,199C 678.056,197.989 678.722,197.156 679.5,196.5C 680.043,196.44 680.376,196.107 680.5,195.5C 679.509,194.335 678.509,193.168 677.5,192C 678.217,190.469 679.217,189.136 680.5,188C 677.833,185.667 677.833,183.333 680.5,181C 677.833,178.667 677.833,176.333 680.5,174C 678.424,172.756 677.424,170.923 677.5,168.5C 678.5,168.5 679.5,168.5 680.5,168.5C 680.5,167.5 680.5,166.5 680.5,165.5C 679.209,165.737 678.209,165.404 677.5,164.5C 677.5,163.5 677.5,162.5 677.5,161.5C 678.167,161.5 678.833,161.5 679.5,161.5C 680.251,162.573 681.251,162.74 682.5,162C 683.085,160.698 683.751,159.531 684.5,158.5C 687.572,156.818 689.905,154.485 691.5,151.5C 694.833,150.167 697.167,147.833 698.5,144.5C 699.551,143.778 700.218,142.778 700.5,141.5 Z"/></g>
<g><path style="opacity:1" fill="#dbbae9" d="M 698.5,165.5 C 699.5,165.5 700.5,165.5 701.5,165.5C 701.5,166.5 701.5,167.5 701.5,168.5C 700.5,168.5 699.5,168.5 698.5,168.5C 698.5,167.5 698.5,166.5 698.5,165.5 Z"/></g>
<g><path style="opacity:1" fill="#dcbfea" d="M 691.5,165.5 C 692.5,165.5 693.5,165.5 694.5,165.5C 694.5,166.5 694.5,167.5 694.5,168.5C 693.5,168.5 692.5,168.5 691.5,168.5C 691.5,167.5 691.5,166.5 691.5,165.5 Z"/></g>
<g><path style="opacity:1" fill="#dcbeea" d="M 683.5,165.5 C 684.833,165.5 686.167,165.5 687.5,165.5C 687.5,166.5 687.5,167.5 687.5,168.5C 686.167,168.5 684.833,168.5 683.5,168.5C 683.5,167.5 683.5,166.5 683.5,165.5 Z"/></g>
<g><path style="opacity:1" fill="#e3cded" d="M 684.5,158.5 C 685.5,158.5 686.5,158.5 687.5,158.5C 687.5,159.5 687.5,160.5 687.5,161.5C 686.5,161.5 685.5,161.5 684.5,161.5C 684.5,160.5 684.5,159.5 684.5,158.5 Z"/></g>
<g><path style="opacity:1" fill="#e4d2ee" d="M 698.5,158.5 C 701.957,158.667 702.29,159.667 699.5,161.5C 698.614,160.675 698.281,159.675 698.5,158.5 Z"/></g>
<g><path style="opacity:1" fill="#eaddf1" d="M 691.5,158.5 C 694.957,158.667 695.29,159.667 692.5,161.5C 691.614,160.675 691.281,159.675 691.5,158.5 Z"/></g>
<g><path style="opacity:1" fill="#e3cced" d="M 698.5,151.5 C 701.957,151.667 702.29,152.667 699.5,154.5C 698.614,153.675 698.281,152.675 698.5,151.5 Z"/></g>
<g><path style="opacity:1" fill="#efebef" d="M 691.5,151.5 C 693.337,151.639 693.67,152.306 692.5,153.5C 691.702,153.043 691.369,152.376 691.5,151.5 Z"/></g>
<g><path style="opacity:1" fill="#eae6ee" d="M 698.5,144.5 C 700.337,144.639 700.67,145.306 699.5,146.5C 698.702,146.043 698.369,145.376 698.5,144.5 Z"/></g>
<g><path style="opacity:1" fill="#f2ecf5" d="M 707.5,172.5 C 708.833,173.5 708.833,174.5 707.5,175.5C 704.833,174.5 704.833,173.5 707.5,172.5 Z"/></g>
<g><path style="opacity:1" fill="#e7d5ef" d="M 684.5,172.5 C 685.5,172.5 686.5,172.5 687.5,172.5C 687.5,173.5 687.5,174.5 687.5,175.5C 686.5,175.5 685.5,175.5 684.5,175.5C 684.5,174.5 684.5,173.5 684.5,172.5 Z"/></g>
<g><path style="opacity:1" fill="#e7d7ef" d="M 691.5,172.5 C 692.5,172.5 693.5,172.5 694.5,172.5C 694.5,173.5 694.5,174.5 694.5,175.5C 693.5,175.5 692.5,175.5 691.5,175.5C 691.5,174.5 691.5,173.5 691.5,172.5 Z"/></g>
<g><path style="opacity:1" fill="#e5cfea" d="M 698.5,172.5 C 699.5,172.5 700.5,172.5 701.5,172.5C 701.5,173.5 701.5,174.5 701.5,175.5C 700.5,175.5 699.5,175.5 698.5,175.5C 698.5,174.5 698.5,173.5 698.5,172.5 Z"/></g>
<g><path style="opacity:1" fill="#7847de" d="M 497.5,170.5 C 508.167,170.5 518.833,170.5 529.5,170.5C 529.5,172.5 529.5,174.5 529.5,176.5C 521.167,176.5 512.833,176.5 504.5,176.5C 504.333,190.171 504.5,203.837 505,217.5C 506.076,220.079 507.909,221.746 510.5,222.5C 516.31,223.49 522.31,223.823 528.5,223.5C 528.5,225.167 528.5,226.833 528.5,228.5C 521.167,228.5 513.833,228.5 506.5,228.5C 502.057,226.658 499.223,223.324 498,218.5C 497.5,202.503 497.333,186.503 497.5,170.5 Z"/></g>
<g><path style="opacity:1" fill="#dad7f1" d="M 472.5,176.5 C 472.833,176.5 473.167,176.5 473.5,176.5C 454.628,177.191 435.628,177.857 416.5,178.5C 416.611,177.883 416.944,177.383 417.5,177C 435.83,176.5 454.164,176.333 472.5,176.5 Z"/></g>
<g><path style="opacity:1" fill="#934ae3" d="M 544.5,118.5 C 544.5,118.167 544.5,117.833 544.5,117.5C 553.833,117.5 563.167,117.5 572.5,117.5C 572.5,159.167 572.5,200.833 572.5,242.5C 572.167,242.5 571.833,242.5 571.5,242.5C 571.5,201.167 571.5,159.833 571.5,118.5C 562.5,118.5 553.5,118.5 544.5,118.5 Z"/></g>
<g><path style="opacity:1" fill="#4c9beb" d="M 271.5,170.5 C 281.167,170.5 290.833,170.5 300.5,170.5C 300.5,172.5 300.5,174.5 300.5,176.5C 295.5,176.5 290.5,176.5 285.5,176.5C 285.5,198.5 285.5,220.5 285.5,242.5C 282.5,242.5 279.5,242.5 276.5,242.5C 276.5,220.5 276.5,198.5 276.5,176.5C 275.602,175.842 274.602,175.176 273.5,174.5C 273.709,173.914 274.043,173.414 274.5,173C 273.429,172.148 272.429,171.315 271.5,170.5 Z"/></g>
<g><path style="opacity:1" fill="#bc9ced" d="M 591.5,171.5 C 591.194,174.385 591.527,177.052 592.5,179.5C 592.5,180.5 592.5,181.5 592.5,182.5C 591.566,183.568 591.232,184.901 591.5,186.5C 590.167,181.5 590.167,176.5 591.5,171.5 Z"/></g>
<g><path style="opacity:1" fill="#e3d8f1" d="M 597.5,182.5 C 595.716,183.72 594.05,183.72 592.5,182.5C 592.5,181.5 592.5,180.5 592.5,179.5C 595.808,177.716 597.475,178.716 597.5,182.5 Z"/></g>
<g><path style="opacity:1" fill="#e5dbf4" d="M 600.5,183.5 C 599.766,182.292 599.433,180.959 599.5,179.5C 601.833,177.889 603.5,178.389 604.5,181C 603.968,183.02 602.635,183.853 600.5,183.5 Z"/></g>
<g><path style="opacity:1" fill="#ebe1f6" d="M 614.5,178.5 C 618.161,178.35 619.161,179.85 617.5,183C 613.707,183.487 612.707,181.987 614.5,178.5 Z"/></g>
<g><path style="opacity:1" fill="#c487e7" d="M 708.5,171.5 C 709.488,176.64 709.821,181.974 709.5,187.5C 708.167,187.5 706.833,187.5 705.5,187.5C 706.209,186.596 707.209,186.263 708.5,186.5C 708.5,185.167 708.5,183.833 708.5,182.5C 708.443,181.391 708.11,180.391 707.5,179.5C 708.833,178.167 708.833,176.833 707.5,175.5C 708.833,174.5 708.833,173.5 707.5,172.5C 708.167,172.5 708.5,172.167 708.5,171.5 Z"/></g>
<g><path style="opacity:1" fill="#ece3ef" d="M 691.5,179.5 C 693.465,179.948 693.798,180.948 692.5,182.5C 691.614,181.675 691.281,180.675 691.5,179.5 Z"/></g>
<g><path style="opacity:1" fill="#e5d0ed" d="M 698.5,179.5 C 702.31,180.754 702.31,181.754 698.5,182.5C 698.5,181.5 698.5,180.5 698.5,179.5 Z"/></g>
<g><path style="opacity:1" fill="#ede4f2" d="M 707.5,179.5 C 708.11,180.391 708.443,181.391 708.5,182.5C 707.5,182.5 706.5,182.5 705.5,182.5C 705.285,180.821 705.952,179.821 707.5,179.5 Z"/></g>
<g><path style="opacity:1" fill="#ede7f4" d="M 607.5,178.5 C 611.161,178.35 612.161,179.85 610.5,183C 606.707,183.487 605.707,181.987 607.5,178.5 Z"/></g>
<g><path style="opacity:1" fill="#e5ceef" d="M 683.5,179.5 C 684.833,179.5 686.167,179.5 687.5,179.5C 687.5,180.5 687.5,181.5 687.5,182.5C 686.167,182.5 684.833,182.5 683.5,182.5C 683.5,181.5 683.5,180.5 683.5,179.5 Z"/></g>
<g><path style="opacity:1" fill="#7652de" d="M 504.5,134.5 C 504.5,141.833 504.5,149.167 504.5,156.5C 512.833,156.5 521.167,156.5 529.5,156.5C 529.5,158.5 529.5,160.5 529.5,162.5C 518.833,162.5 508.167,162.5 497.5,162.5C 497.825,155.313 497.491,148.313 496.5,141.5C 494.5,141.5 492.5,141.5 490.5,141.5C 490.333,167.502 490.5,193.502 491,219.5C 492.492,228.011 497.325,233.511 505.5,236C 513.677,236.171 521.677,236.671 529.5,237.5C 522.159,237.334 514.826,237.5 507.5,238C 507.833,238.333 508.167,238.667 508.5,239C 507.376,239.249 506.376,239.749 505.5,240.5C 506.833,241.167 508.167,241.833 509.5,242.5C 516.134,243.497 522.8,243.83 529.5,243.5C 522.679,244.655 515.679,244.821 508.5,244C 493.688,242.354 485.355,234.187 483.5,219.5C 483.5,191.167 483.5,162.833 483.5,134.5C 490.5,134.5 497.5,134.5 504.5,134.5 Z"/></g>
<g><path style="opacity:1" fill="#5b73dd" d="M 365.5,160.5 C 372.216,163.389 376.716,168.389 379,175.5C 379.333,189.833 379.667,204.167 380,218.5C 380.833,219.5 381.667,220.5 382.5,221.5C 400.787,222.487 419.12,222.82 437.5,222.5C 421.672,223.331 405.672,223.831 389.5,224C 400.182,224.168 410.849,224.668 421.5,225.5C 420.286,227.069 418.619,227.902 416.5,228C 424.493,228.5 432.493,228.666 440.5,228.5C 421.341,229.497 402.007,229.83 382.5,229.5C 376.654,227.649 373.32,223.649 372.5,217.5C 372.667,205.162 372.5,192.829 372,180.5C 371.768,179.263 371.268,178.263 370.5,177.5C 368.925,171.592 365.259,167.592 359.5,165.5C 360.895,163.139 362.895,161.472 365.5,160.5 Z"/></g>
<g><path style="opacity:1" fill="#c0bfef" d="M 418.5,186.5 C 426.834,186.64 434.834,187.973 442.5,190.5C 434.302,189.578 426.302,188.245 418.5,186.5 Z"/></g>
<g><path style="opacity:1" fill="#ece1f7" d="M 600.5,185.5 C 603.5,185.167 604.833,186.5 604.5,189.5C 602.958,190.301 601.292,190.634 599.5,190.5C 599.366,188.708 599.699,187.042 600.5,185.5 Z"/></g>
<g><path style="opacity:1" fill="#ebe3f6" d="M 607.5,185.5 C 611.161,185.35 612.161,186.85 610.5,190C 609.207,190.49 607.873,190.657 606.5,190.5C 606.366,188.708 606.699,187.042 607.5,185.5 Z"/></g>
<g><path style="opacity:1" fill="#eae2f4" d="M 614.5,185.5 C 615.5,185.5 616.5,185.5 617.5,185.5C 617.5,187.167 617.5,188.833 617.5,190.5C 613.716,190.475 612.716,188.808 614.5,185.5 Z"/></g>
<g><path style="opacity:1" fill="#a6bcf0" d="M 357.5,187.5 C 353.366,188.485 349.032,188.818 344.5,188.5C 337.441,188.604 330.441,189.271 323.5,190.5C 325.877,189.113 328.543,188.279 331.5,188C 340.16,187.5 348.827,187.334 357.5,187.5 Z"/></g>
<g><path style="opacity:1" fill="#ebdff0" d="M 691.5,186.5 C 695.31,187.754 695.31,188.754 691.5,189.5C 691.5,188.5 691.5,187.5 691.5,186.5 Z"/></g>
<g><path style="opacity:1" fill="#e5d2ea" d="M 698.5,186.5 C 702.31,187.754 702.31,188.754 698.5,189.5C 698.5,188.5 698.5,187.5 698.5,186.5 Z"/></g>
<g><path style="opacity:1" fill="#e6d0ef" d="M 684.5,186.5 C 685.5,186.5 686.5,186.5 687.5,186.5C 687.426,190.541 686.093,191.208 683.5,188.5C 683.863,187.817 684.196,187.15 684.5,186.5 Z"/></g>
<g><path style="opacity:1" fill="#d9bdeb" d="M 705.5,187.5 C 706.833,187.5 708.167,187.5 709.5,187.5C 709.5,189.833 709.5,192.167 709.5,194.5C 708.167,194.5 706.833,194.5 705.5,194.5C 706.209,193.596 707.209,193.263 708.5,193.5C 708.5,192.167 708.5,190.833 708.5,189.5C 706.821,189.715 705.821,189.048 705.5,187.5 Z"/></g>
<g><path style="opacity:1" fill="#5589e5" d="M 344.5,188.5 C 343.391,189.29 342.058,189.79 340.5,190C 342.134,190.494 343.801,190.66 345.5,190.5C 345.5,191.5 345.5,192.5 345.5,193.5C 349.442,194.557 356.108,194.89 365.5,194.5C 353.674,195.331 341.674,195.831 329.5,196C 324.517,197.488 320.184,199.988 316.5,203.5C 314.563,202.046 312.897,200.379 311.5,198.5C 314.458,194.349 318.458,191.682 323.5,190.5C 330.441,189.271 337.441,188.604 344.5,188.5 Z"/></g>
<g><path style="opacity:1" fill="#b4c1eb" d="M 370.5,177.5 C 371.268,178.263 371.768,179.263 372,180.5C 372.5,192.829 372.667,205.162 372.5,217.5C 371.76,204.315 371.094,190.982 370.5,177.5 Z"/></g>
<g><path style="opacity:1" fill="#645edb" d="M 435.5,170.5 C 432.359,171.321 429.025,171.821 425.5,172C 430.178,172.197 430.512,173.197 426.5,175C 441.83,175.5 457.163,175.667 472.5,175.5C 472.5,175.833 472.5,176.167 472.5,176.5C 454.164,176.333 435.83,176.5 417.5,177C 416.944,177.383 416.611,177.883 416.5,178.5C 415.371,180.628 415.204,182.961 416,185.5C 416.671,186.252 417.504,186.586 418.5,186.5C 426.302,188.245 434.302,189.578 442.5,190.5C 459.695,193.849 467.528,204.182 466,221.5C 463.446,233.89 455.946,240.89 443.5,242.5C 437.158,242.666 430.825,242.5 424.5,242C 422.109,240.691 422.109,239.691 424.5,239C 422.942,238.79 421.609,238.29 420.5,237.5C 427.022,237.823 433.355,237.49 439.5,236.5C 449.083,235.635 455.25,230.635 458,221.5C 460.175,209.35 455.341,201.517 443.5,198C 433.018,196.613 422.685,194.613 412.5,192C 407.997,188.155 406.497,183.322 408,177.5C 410.106,174.882 412.606,172.882 415.5,171.5C 422.131,170.669 428.798,170.336 435.5,170.5 Z"/></g>
<g><path style="opacity:1" fill="#efe8f8" d="M 603.5,193.5 C 604.11,194.391 604.443,195.391 604.5,196.5C 602.958,197.301 601.292,197.634 599.5,197.5C 599.5,196.167 599.5,194.833 599.5,193.5C 600.833,193.5 602.167,193.5 603.5,193.5 Z"/></g>
<g><path style="opacity:1" fill="#ece2f6" d="M 607.5,192.5 C 611.161,192.35 612.161,193.85 610.5,197C 609.207,197.49 607.873,197.657 606.5,197.5C 606.366,195.708 606.699,194.042 607.5,192.5 Z"/></g>
<g><path style="opacity:1" fill="#f3edf8" d="M 613.5,193.5 C 614.833,193.5 616.167,193.5 617.5,193.5C 617.5,194.833 617.5,196.167 617.5,197.5C 616.167,197.5 614.833,197.5 613.5,197.5C 613.5,196.167 613.5,194.833 613.5,193.5 Z"/></g>
<g><path style="opacity:1" fill="#e2c5ec" d="M 684.5,193.5 C 687.861,194.203 688.194,195.537 685.5,197.5C 683.358,196.563 683.024,195.23 684.5,193.5 Z"/></g>
<g><path style="opacity:1" fill="#e4cded" d="M 691.5,193.5 C 694.861,194.203 695.194,195.537 692.5,197.5C 691.571,196.311 691.238,194.978 691.5,193.5 Z"/></g>
<g><path style="opacity:1" fill="#e5cdef" d="M 698.5,193.5 C 701.861,194.203 702.194,195.537 699.5,197.5C 698.571,196.311 698.238,194.978 698.5,193.5 Z"/></g>
<g><path style="opacity:1" fill="#a473e6" d="M 544.5,117.5 C 544.5,117.833 544.5,118.167 544.5,118.5C 544.5,159.833 544.5,201.167 544.5,242.5C 553.5,242.5 562.5,242.5 571.5,242.5C 571.833,242.5 572.167,242.5 572.5,242.5C 563.014,243.494 553.348,243.827 543.5,243.5C 543.168,201.33 543.501,159.33 544.5,117.5 Z"/></g>
<g><path style="opacity:1" fill="#eee8f6" d="M 610.5,200.5 C 611.11,201.391 611.443,202.391 611.5,203.5C 609.958,204.301 608.292,204.634 606.5,204.5C 606.5,203.167 606.5,201.833 606.5,200.5C 607.833,200.5 609.167,200.5 610.5,200.5 Z"/></g>
<g><path style="opacity:1" fill="#ebe1f4" d="M 614.5,199.5 C 620.005,202.171 619.671,203.838 613.5,204.5C 613.366,202.708 613.699,201.042 614.5,199.5 Z"/></g>
<g><path style="opacity:1" fill="#e3ccec" d="M 684.5,200.5 C 687.861,201.203 688.194,202.537 685.5,204.5C 683.358,203.563 683.024,202.23 684.5,200.5 Z"/></g>
<g><path style="opacity:1" fill="#dcbfea" d="M 691.5,200.5 C 694.861,201.203 695.194,202.537 692.5,204.5C 690.358,203.563 690.024,202.23 691.5,200.5 Z"/></g>
<g><path style="opacity:1" fill="#e6d6e9" d="M 698.5,201.5 C 699.675,201.281 700.675,201.614 701.5,202.5C 699.948,203.798 698.948,203.465 698.5,201.5 Z"/></g>
<g><path style="opacity:1" fill="#e0bfef" d="M 679.5,196.5 C 678.722,197.156 678.056,197.989 677.5,199C 681.757,202.984 681.09,204.484 675.5,203.5C 675.993,201.194 676.326,198.861 676.5,196.5C 677.5,196.5 678.5,196.5 679.5,196.5 Z"/></g>
<g><path style="opacity:1" fill="#537ce0" d="M 356.5,202.5 C 359.5,202.5 362.5,202.5 365.5,202.5C 365.096,216.565 358.096,225.231 344.5,228.5C 340.486,228.666 336.486,228.499 332.5,228C 334.134,227.506 335.801,227.34 337.5,227.5C 337.5,226.5 337.5,225.5 337.5,224.5C 336.127,224.657 334.793,224.49 333.5,224C 336.695,223.819 339.695,223.319 342.5,222.5C 348.97,221.02 353.636,217.354 356.5,211.5C 357.404,210.791 357.737,209.791 357.5,208.5C 350.5,208.5 343.5,208.5 336.5,208.5C 336.78,205.612 335.447,204.112 332.5,204C 340.677,203.829 348.677,203.329 356.5,202.5 Z"/></g>
<g><path style="opacity:1" fill="#f1f1f9" d="M 466.5,163.5 C 466.5,165.5 466.5,167.5 466.5,169.5C 450.163,169.333 433.83,169.5 417.5,170C 416.584,170.278 415.918,170.778 415.5,171.5C 412.606,172.882 410.106,174.882 408,177.5C 406.497,183.322 407.997,188.155 412.5,192C 422.685,194.613 433.018,196.613 443.5,198C 455.341,201.517 460.175,209.35 458,221.5C 455.25,230.635 449.083,235.635 439.5,236.5C 419.497,236.667 399.497,236.5 379.5,236C 378.263,235.768 377.263,235.268 376.5,234.5C 397.151,235.664 417.817,235.664 438.5,234.5C 438.5,233.5 438.5,232.5 438.5,231.5C 419.672,230.977 401.005,230.31 382.5,229.5C 402.007,229.83 421.341,229.497 440.5,228.5C 449.332,226.182 452.498,220.515 450,211.5C 448.149,208.154 445.316,206.154 441.5,205.5C 432.02,203.431 422.353,201.598 412.5,200C 409.098,198.6 406.264,196.433 404,193.5C 396.808,179.382 400.641,169.549 415.5,164C 432.497,163.5 449.497,163.333 466.5,163.5 Z"/></g>
<g><path style="opacity:1" fill="#f0e9f8" d="M 613.5,207.5 C 616.285,206.916 617.952,207.916 618.5,210.5C 616.958,211.301 615.292,211.634 613.5,211.5C 613.5,210.167 613.5,208.833 613.5,207.5 Z"/></g>
<g><path style="opacity:1" fill="#efe8f7" d="M 620.5,207.5 C 621.833,207.5 623.167,207.5 624.5,207.5C 624.5,208.833 624.5,210.167 624.5,211.5C 623.167,211.5 621.833,211.5 620.5,211.5C 620.5,210.167 620.5,208.833 620.5,207.5 Z"/></g>
<g><path style="opacity:1" fill="#e4d0ee" d="M 677.5,207.5 C 679.912,207.694 680.912,209.027 680.5,211.5C 677.046,211.733 676.046,210.4 677.5,207.5 Z"/></g>
<g><path style="opacity:1" fill="#ede1f0" d="M 684.5,208.5 C 687.957,208.667 688.29,209.667 685.5,211.5C 684.614,210.675 684.281,209.675 684.5,208.5 Z"/></g>
<g><path style="opacity:1" fill="#eaddf0" d="M 691.5,208.5 C 694.957,208.667 695.29,209.667 692.5,211.5C 691.614,210.675 691.281,209.675 691.5,208.5 Z"/></g>
<g><path style="opacity:1" fill="#e9d9ef" d="M 698.5,208.5 C 701.957,208.667 702.29,209.667 699.5,211.5C 698.614,210.675 698.281,209.675 698.5,208.5 Z"/></g>
<g><path style="opacity:1" fill="#58b8f1" d="M 271.5,170.5 C 272.429,171.315 273.429,172.148 274.5,173C 274.043,173.414 273.709,173.914 273.5,174.5C 274.602,175.176 275.602,175.842 276.5,176.5C 274.167,176.5 271.833,176.5 269.5,176.5C 269.667,197.836 269.5,219.169 269,240.5C 267.646,249.665 262.812,255.998 254.5,259.5C 251.903,259.279 251.903,258.779 254.5,258C 253.747,256.513 252.914,256.346 252,257.5C 251.383,256.551 251.549,255.718 252.5,255C 251.833,254.667 251.167,254.333 250.5,254C 251.942,253.623 252.942,252.79 253.5,251.5C 256.223,248.938 258.389,245.938 260,242.5C 260.5,220.503 260.667,198.503 260.5,176.5C 256.167,176.5 251.833,176.5 247.5,176.5C 247.5,174.5 247.5,172.5 247.5,170.5C 255.5,170.5 263.5,170.5 271.5,170.5 Z"/></g>
<g><path style="opacity:1" fill="#eff2f8" d="M 356.5,211.5 C 353.636,217.354 348.97,221.02 342.5,222.5C 338.486,222.666 334.486,222.499 330.5,222C 326.607,218.254 326.607,214.588 330.5,211C 335.056,209.891 339.722,209.391 344.5,209.5C 348.893,209.509 352.893,210.176 356.5,211.5 Z"/></g>
<g><path style="opacity:1" fill="#9b5cea" d="M 599.5,179.5 C 599.433,180.959 599.766,182.292 600.5,183.5C 599.167,184.167 599.167,184.833 600.5,185.5C 599.699,187.042 599.366,188.708 599.5,190.5C 601.292,190.634 602.958,190.301 604.5,189.5C 603.411,191.117 601.744,191.95 599.5,192C 601.058,192.21 602.391,192.71 603.5,193.5C 602.167,193.5 600.833,193.5 599.5,193.5C 599.5,194.833 599.5,196.167 599.5,197.5C 601.292,197.634 602.958,197.301 604.5,196.5C 604.5,197.5 604.5,198.5 604.5,199.5C 606.735,199.205 608.735,199.539 610.5,200.5C 609.167,200.5 607.833,200.5 606.5,200.5C 606.5,201.833 606.5,203.167 606.5,204.5C 608.292,204.634 609.958,204.301 611.5,203.5C 611.66,205.153 612.326,206.486 613.5,207.5C 613.5,208.833 613.5,210.167 613.5,211.5C 615.292,211.634 616.958,211.301 618.5,210.5C 617.322,211.999 615.655,212.999 613.5,213.5C 613.624,214.107 613.957,214.44 614.5,214.5C 613.89,215.391 613.557,216.391 613.5,217.5C 612.833,216.833 612.167,216.167 611.5,215.5C 608.837,213.83 607.17,214.497 606.5,217.5C 605.833,217.167 605.167,216.833 604.5,216.5C 603.415,214.418 601.915,214.084 600,215.5C 599.153,218.49 600.32,219.824 603.5,219.5C 604.369,221.717 604.702,224.05 604.5,226.5C 603.549,225.081 603.216,223.415 603.5,221.5C 601.61,221.703 600.11,221.037 599,219.5C 596.89,216.329 596.39,212.996 597.5,209.5C 596.167,208.167 594.833,206.833 593.5,205.5C 594.325,204.614 595.325,204.281 596.5,204.5C 596.5,203.167 596.5,201.833 596.5,200.5C 595.167,200.5 593.833,200.5 592.5,200.5C 592.5,199.5 592.5,198.5 592.5,197.5C 593.833,197.5 595.167,197.5 596.5,197.5C 596.5,196.167 596.5,194.833 596.5,193.5C 594.856,193.286 593.356,193.62 592,194.5C 591.503,191.854 591.336,189.187 591.5,186.5C 591.232,184.901 591.566,183.568 592.5,182.5C 594.05,183.72 595.716,183.72 597.5,182.5C 598.332,182.246 598.999,181.246 599.5,179.5 Z"/></g>
<g><path style="opacity:1" fill="#f1ebf8" d="M 606.5,207.5 C 608.665,207.116 610.332,207.783 611.5,209.5C 610.332,211.217 608.665,211.884 606.5,211.5C 606.5,210.167 606.5,208.833 606.5,207.5 Z"/></g>
<g><path style="opacity:1" fill="#e6daf5" d="M 599.5,207.5 C 603.138,206.737 604.638,208.07 604,211.5C 600.331,213.009 598.831,211.676 599.5,207.5 Z"/></g>
<g><path style="opacity:1" fill="#efe7f7" d="M 599.5,200.5 C 601.665,200.116 603.332,200.783 604.5,202.5C 603.332,204.217 601.665,204.884 599.5,204.5C 599.5,203.167 599.5,201.833 599.5,200.5 Z"/></g>
<g><path style="opacity:1" fill="#ede6f7" d="M 593.5,185.5 C 596.685,185.722 597.685,187.222 596.5,190C 595.207,190.49 593.873,190.657 592.5,190.5C 592.366,188.708 592.699,187.042 593.5,185.5 Z"/></g>
<g><path style="opacity:1" fill="#ece2f7" d="M 604.5,216.5 C 604.443,217.609 604.11,218.609 603.5,219.5C 600.32,219.824 599.153,218.49 600,215.5C 601.915,214.084 603.415,214.418 604.5,216.5 Z"/></g>
<g><path style="opacity:1" fill="#e6daf3" d="M 614.5,214.5 C 616.346,214.222 617.68,214.889 618.5,216.5C 617.219,219.951 615.553,220.284 613.5,217.5C 613.557,216.391 613.89,215.391 614.5,214.5 Z"/></g>
<g><path style="opacity:1" fill="#f4f2f6" d="M 675.5,242.5 C 677.081,240.858 677.747,238.858 677.5,236.5C 678.5,236.5 679.5,236.5 680.5,236.5C 680.351,237.552 680.517,238.552 681,239.5C 690.617,233.432 698.117,225.432 703.5,215.5C 703.351,216.552 703.517,217.552 704,218.5C 704.667,217.167 705.333,215.833 706,214.5C 706.5,224.161 706.666,233.828 706.5,243.5C 696.115,243.786 685.782,243.452 675.5,242.5 Z"/></g>
<g><path style="opacity:1" fill="#e8def4" d="M 611.5,215.5 C 611.67,216.822 611.337,217.989 610.5,219C 608.648,219.773 607.314,219.273 606.5,217.5C 607.17,214.497 608.837,213.83 611.5,215.5 Z"/></g>
<g><path style="opacity:1" fill="#e7ddf3" d="M 621.5,214.5 C 624.694,214.176 625.694,215.342 624.5,218C 623.207,218.49 621.873,218.657 620.5,218.5C 620.433,217.041 620.766,215.708 621.5,214.5 Z"/></g>
<g><path style="opacity:1" fill="#e0c7ec" d="M 676.5,215.5 C 677.833,215.5 679.167,215.5 680.5,215.5C 680.5,216.5 680.5,217.5 680.5,218.5C 679.167,218.5 677.833,218.5 676.5,218.5C 676.5,217.5 676.5,216.5 676.5,215.5 Z"/></g>
<g><path style="opacity:1" fill="#e3cdec" d="M 684.5,215.5 C 685.5,215.5 686.5,215.5 687.5,215.5C 687.5,216.5 687.5,217.5 687.5,218.5C 686.5,218.5 685.5,218.5 684.5,218.5C 684.5,217.5 684.5,216.5 684.5,215.5 Z"/></g>
<g><path style="opacity:1" fill="#e0c8eb" d="M 691.5,215.5 C 692.5,215.5 693.5,215.5 694.5,215.5C 694.5,216.5 694.5,217.5 694.5,218.5C 693.5,218.5 692.5,218.5 691.5,218.5C 691.5,217.5 691.5,216.5 691.5,215.5 Z"/></g>
<g><path style="opacity:1" fill="#e4ceee" d="M 697.5,215.5 C 698.978,215.238 700.311,215.571 701.5,216.5C 700.68,218.111 699.346,218.778 697.5,218.5C 697.5,217.5 697.5,216.5 697.5,215.5 Z"/></g>
<g><path style="opacity:1" fill="#588be4" d="M 356.5,202.5 C 348.677,203.329 340.677,203.829 332.5,204C 335.447,204.112 336.78,205.612 336.5,208.5C 343.5,208.5 350.5,208.5 357.5,208.5C 357.737,209.791 357.404,210.791 356.5,211.5C 352.893,210.176 348.893,209.509 344.5,209.5C 339.722,209.391 335.056,209.891 330.5,211C 326.607,214.588 326.607,218.254 330.5,222C 334.486,222.499 338.486,222.666 342.5,222.5C 339.695,223.319 336.695,223.819 333.5,224C 334.793,224.49 336.127,224.657 337.5,224.5C 337.5,225.5 337.5,226.5 337.5,227.5C 335.801,227.34 334.134,227.506 332.5,228C 336.486,228.499 340.486,228.666 344.5,228.5C 338.61,229.824 332.61,229.657 326.5,228C 316.074,217.737 317.407,209.403 330.5,203C 339.16,202.5 347.827,202.334 356.5,202.5 Z"/></g>
<g><path style="opacity:1" fill="#f2ebf7" d="M 621.5,221.5 C 622.5,221.5 623.5,221.5 624.5,221.5C 624.5,222.833 624.5,224.167 624.5,225.5C 623.167,225.5 621.833,225.5 620.5,225.5C 620.433,224.041 620.766,222.708 621.5,221.5 Z"/></g>
<g><path style="opacity:1" fill="#ede4f6" d="M 628.5,221.5 C 629.5,221.5 630.5,221.5 631.5,221.5C 631.884,223.665 631.217,225.332 629.5,226.5C 627.296,225.218 626.962,223.551 628.5,221.5 Z"/></g>
<g><path style="opacity:1" fill="#e4d6f1" d="M 607.5,221.5 C 611.161,221.35 612.161,222.85 610.5,226C 606.707,226.487 605.707,224.987 607.5,221.5 Z"/></g>
<g><path style="opacity:1" fill="#e6daf3" d="M 614.5,221.5 C 618.161,221.35 619.161,222.85 617.5,226C 613.707,226.487 612.707,224.987 614.5,221.5 Z"/></g>
<g><path style="opacity:1" fill="#615edc" d="M 441.5,205.5 C 445.316,206.154 448.149,208.154 450,211.5C 452.498,220.515 449.332,226.182 440.5,228.5C 432.493,228.666 424.493,228.5 416.5,228C 418.619,227.902 420.286,227.069 421.5,225.5C 410.849,224.668 400.182,224.168 389.5,224C 405.672,223.831 421.672,223.331 437.5,222.5C 442.776,221.707 444.609,218.707 443,213.5C 438.608,212.086 434.108,211.086 429.5,210.5C 427.189,208.932 424.522,208.098 421.5,208C 428.284,207.714 434.951,206.881 441.5,205.5 Z"/></g>
<g><path style="opacity:1" fill="#eee8f2" d="M 663.5,222.5 C 664.5,222.5 665.5,222.5 666.5,222.5C 666.5,223.5 666.5,224.5 666.5,225.5C 665.5,225.5 664.5,225.5 663.5,225.5C 663.5,224.5 663.5,223.5 663.5,222.5 Z"/></g>
<g><path style="opacity:1" fill="#efe8f1" d="M 670.5,222.5 C 671.5,222.5 672.5,222.5 673.5,222.5C 673.5,223.5 673.5,224.5 673.5,225.5C 672.5,225.5 671.5,225.5 670.5,225.5C 670.5,224.5 670.5,223.5 670.5,222.5 Z"/></g>
<g><path style="opacity:1" fill="#ecdff2" d="M 677.5,222.5 C 678.5,222.5 679.5,222.5 680.5,222.5C 680.5,223.5 680.5,224.5 680.5,225.5C 679.5,225.5 678.5,225.5 677.5,225.5C 677.5,224.5 677.5,223.5 677.5,222.5 Z"/></g>
<g><path style="opacity:1" fill="#e9d9f0" d="M 684.5,222.5 C 685.5,222.5 686.5,222.5 687.5,222.5C 687.5,223.5 687.5,224.5 687.5,225.5C 686.5,225.5 685.5,225.5 684.5,225.5C 684.5,224.5 684.5,223.5 684.5,222.5 Z"/></g>
<g><path style="opacity:1" fill="#e4ceeb" d="M 691.5,222.5 C 692.5,222.5 693.5,222.5 694.5,222.5C 694.5,223.5 694.5,224.5 694.5,225.5C 693.5,225.5 692.5,225.5 691.5,225.5C 691.5,224.5 691.5,223.5 691.5,222.5 Z"/></g>
<g><path style="opacity:1" fill="#a6cbf2" d="M 276.5,242.5 C 279.5,242.5 282.5,242.5 285.5,242.5C 285.5,220.5 285.5,198.5 285.5,176.5C 290.5,176.5 295.5,176.5 300.5,176.5C 300.5,174.5 300.5,172.5 300.5,170.5C 290.833,170.5 281.167,170.5 271.5,170.5C 263.5,170.5 255.5,170.5 247.5,170.5C 247.5,172.5 247.5,174.5 247.5,176.5C 246.532,174.393 246.198,172.059 246.5,169.5C 264.833,169.5 283.167,169.5 301.5,169.5C 301.5,172.167 301.5,174.833 301.5,177.5C 296.5,177.5 291.5,177.5 286.5,177.5C 286.5,199.5 286.5,221.5 286.5,243.5C 282.958,243.813 279.625,243.479 276.5,242.5 Z"/></g>
<g><path style="opacity:1" fill="#a272e9" d="M 510.5,222.5 C 516.833,222.5 523.167,222.5 529.5,222.5C 529.5,224.833 529.5,227.167 529.5,229.5C 521.648,229.825 513.982,229.492 506.5,228.5C 513.833,228.5 521.167,228.5 528.5,228.5C 528.5,226.833 528.5,225.167 528.5,223.5C 522.31,223.823 516.31,223.49 510.5,222.5 Z"/></g>
<g><path style="opacity:1" fill="#ebe0f5" d="M 614.5,228.5 C 618.161,228.35 619.161,229.85 617.5,233C 613.707,233.487 612.707,231.987 614.5,228.5 Z"/></g>
<g><path style="opacity:1" fill="#e9dff4" d="M 621.5,228.5 C 624.084,229.048 625.084,230.715 624.5,233.5C 620.716,233.475 619.716,231.808 621.5,228.5 Z"/></g>
<g><path style="opacity:1" fill="#5392e7" d="M 311.5,198.5 C 312.897,200.379 314.563,202.046 316.5,203.5C 308.679,218.72 312.679,229.554 328.5,236C 335.203,236.713 341.87,236.546 348.5,235.5C 342.916,237.295 336.916,238.129 330.5,238C 334.33,237.951 337.663,239.118 340.5,241.5C 336.204,242.328 331.871,242.828 327.5,243C 333.157,243.499 338.824,243.666 344.5,243.5C 331.919,246.844 320.753,244.177 311,235.5C 304.533,226.32 302.866,216.32 306,205.5C 307.371,202.734 309.204,200.401 311.5,198.5 Z"/></g>
<g><path style="opacity:1" fill="#ddc4ed" d="M 662.5,229.5 C 663.833,229.5 665.167,229.5 666.5,229.5C 666.5,230.5 666.5,231.5 666.5,232.5C 665.167,232.5 663.833,232.5 662.5,232.5C 662.5,231.5 662.5,230.5 662.5,229.5 Z"/></g>
<g><path style="opacity:1" fill="#597bdf" d="M 376.5,234.5 C 377.263,235.268 378.263,235.768 379.5,236C 399.497,236.5 419.497,236.667 439.5,236.5C 433.355,237.49 427.022,237.823 420.5,237.5C 408.162,237.333 395.829,237.5 383.5,238C 385.256,238.202 386.922,238.702 388.5,239.5C 386.745,240.554 384.412,241.387 381.5,242C 382.737,242.232 383.737,242.732 384.5,243.5C 376.35,243.758 369.683,240.758 364.5,234.5C 358.727,239.427 352.06,242.427 344.5,243.5C 338.824,243.666 333.157,243.499 327.5,243C 331.871,242.828 336.204,242.328 340.5,241.5C 337.663,239.118 334.33,237.951 330.5,238C 336.916,238.129 342.916,237.295 348.5,235.5C 355.623,232.709 361.623,228.375 366.5,222.5C 368.253,225.005 369.753,227.671 371,230.5C 372.451,232.464 374.284,233.797 376.5,234.5 Z"/></g>
<g><path style="opacity:1" fill="#e8e0f2" d="M 628.5,228.5 C 629.5,228.5 630.5,228.5 631.5,228.5C 631.5,230.167 631.5,231.833 631.5,233.5C 627.716,233.475 626.716,231.808 628.5,228.5 Z"/></g>
<g><path style="opacity:1" fill="#e2d4f0" d="M 635.5,228.5 C 636.5,228.5 637.5,228.5 638.5,228.5C 638.5,230.167 638.5,231.833 638.5,233.5C 634.716,233.475 633.716,231.808 635.5,228.5 Z"/></g>
<g><path style="opacity:1" fill="#e4d7ef" d="M 641.5,229.5 C 642.833,229.5 644.167,229.5 645.5,229.5C 645.5,230.833 645.5,232.167 645.5,233.5C 642.5,233.833 641.167,232.5 641.5,229.5 Z"/></g>
<g><path style="opacity:1" fill="#e4d6f2" d="M 651.5,233.5 C 650.833,233.5 650.167,233.5 649.5,233.5C 648.766,232.292 648.433,230.959 648.5,229.5C 649.833,229.5 651.167,229.5 652.5,229.5C 652.567,230.959 652.234,232.292 651.5,233.5 Z"/></g>
<g><path style="opacity:1" fill="#e5d4f1" d="M 655.5,229.5 C 656.5,229.5 657.5,229.5 658.5,229.5C 659.097,229.735 659.43,230.235 659.5,231C 657.188,234.359 655.854,233.859 655.5,229.5 Z"/></g>
<g><path style="opacity:1" fill="#e9ddf0" d="M 670.5,229.5 C 671.5,229.5 672.5,229.5 673.5,229.5C 673.5,230.5 673.5,231.5 673.5,232.5C 672.5,232.5 671.5,232.5 670.5,232.5C 670.5,231.5 670.5,230.5 670.5,229.5 Z"/></g>
<g><path style="opacity:1" fill="#eaddf2" d="M 677.5,229.5 C 678.5,229.5 679.5,229.5 680.5,229.5C 680.5,230.5 680.5,231.5 680.5,232.5C 679.5,232.5 678.5,232.5 677.5,232.5C 677.5,231.5 677.5,230.5 677.5,229.5 Z"/></g>
<g><path style="opacity:1" fill="#ebdff1" d="M 684.5,229.5 C 685.5,229.5 686.5,229.5 687.5,229.5C 687.5,230.5 687.5,231.5 687.5,232.5C 686.5,232.5 685.5,232.5 684.5,232.5C 684.5,231.5 684.5,230.5 684.5,229.5 Z"/></g>
<g><path style="opacity:1" fill="#eae5f2" d="M 627.5,236.5 C 628.833,236.5 630.167,236.5 631.5,236.5C 631.5,237.833 631.5,239.167 631.5,240.5C 628.5,240.833 627.167,239.5 627.5,236.5 Z"/></g>
<g><path style="opacity:1" fill="#eae1f2" d="M 634.5,236.5 C 635.833,236.5 637.167,236.5 638.5,236.5C 638.5,237.833 638.5,239.167 638.5,240.5C 635.5,240.833 634.167,239.5 634.5,236.5 Z"/></g>
<g><path style="opacity:1" fill="#eae2f1" d="M 644.5,240.5 C 643.833,240.5 643.167,240.5 642.5,240.5C 641.766,239.292 641.433,237.959 641.5,236.5C 642.833,236.5 644.167,236.5 645.5,236.5C 645.567,237.959 645.234,239.292 644.5,240.5 Z"/></g>
<g><path style="opacity:1" fill="#e6d8f1" d="M 648.5,236.5 C 649.5,236.5 650.5,236.5 651.5,236.5C 652.434,237.568 652.768,238.901 652.5,240.5C 649.5,240.833 648.167,239.5 648.5,236.5 Z"/></g>
<g><path style="opacity:1" fill="#e5d5f0" d="M 655.5,236.5 C 656.833,236.5 658.167,236.5 659.5,236.5C 659.5,237.833 659.5,239.167 659.5,240.5C 656.5,240.833 655.167,239.5 655.5,236.5 Z"/></g>
<g><path style="opacity:1" fill="#e7d8f2" d="M 663.5,236.5 C 664.5,236.5 665.5,236.5 666.5,236.5C 666.426,240.541 665.093,241.208 662.5,238.5C 662.863,237.817 663.196,237.15 663.5,236.5 Z"/></g>
<g><path style="opacity:1" fill="#5768db" d="M 420.5,237.5 C 421.609,238.29 422.942,238.79 424.5,239C 422.109,239.691 422.109,240.691 424.5,242C 430.825,242.5 437.158,242.666 443.5,242.5C 424.007,243.497 404.34,243.83 384.5,243.5C 383.737,242.732 382.737,242.232 381.5,242C 384.412,241.387 386.745,240.554 388.5,239.5C 386.922,238.702 385.256,238.202 383.5,238C 395.829,237.5 408.162,237.333 420.5,237.5 Z"/></g>
<g><path style="opacity:1" fill="#7d3be1" d="M 529.5,237.5 C 529.5,239.5 529.5,241.5 529.5,243.5C 522.8,243.83 516.134,243.497 509.5,242.5C 508.167,241.833 506.833,241.167 505.5,240.5C 506.376,239.749 507.376,239.249 508.5,239C 508.167,238.667 507.833,238.333 507.5,238C 514.826,237.5 522.159,237.334 529.5,237.5 Z"/></g>
<g><path style="opacity:1" fill="#ede5f3" d="M 670.5,236.5 C 671.5,236.5 672.5,236.5 673.5,236.5C 673.5,237.5 673.5,238.5 673.5,239.5C 672.5,239.5 671.5,239.5 670.5,239.5C 670.5,238.5 670.5,237.5 670.5,236.5 Z"/></g>
<g><path style="opacity:1" fill="#52c1f4" d="M 253.5,251.5 C 252.942,252.79 251.942,253.623 250.5,254C 251.167,254.333 251.833,254.667 252.5,255C 251.549,255.718 251.383,256.551 252,257.5C 252.914,256.346 253.747,256.513 254.5,258C 251.903,258.779 251.903,259.279 254.5,259.5C 252.524,261.011 250.191,261.844 247.5,262C 238.173,262.5 228.839,262.666 219.5,262.5C 219.5,259.833 219.5,257.167 219.5,254.5C 228.506,254.666 237.506,254.5 246.5,254C 248.743,252.864 251.076,252.03 253.5,251.5 Z"/></g>
</svg>
